<svg preserveAspectRatio="none" overflow="visible" style="display: block;" width="26.6764" height="78.9014" viewBox="0 0 26.6764 78.9014" fill="none" xmlns="http://www.w3.org/2000/svg">
<g id="&#235;&#167;&#165;&#236;&#163;&#188; &#236;&#157;&#188;&#235;&#159;&#172;&#236;&#138;&#164;&#237;&#138;&#184;">
<mask id="mask0_0_109" style="mask-type:alpha" maskUnits="userSpaceOnUse" x="0" y="0" width="27" height="79">
<path id="Rectangle 161128121" d="M0 0H26.6764V74.3334C26.6764 76.8562 24.6312 78.9014 22.1083 78.9014H0V0Z" fill="#0C0C3E"/>
</mask>
<g mask="url(#mask0_0_109)">
<path id="Subtract" d="M28.1006 0.209826C28.9992 0.209826 29.7283 0.938173 29.7285 1.83678C29.7284 2.71628 29.0303 3.43057 28.1582 3.4608L30.4346 11.6249C30.6283 12.3208 30.1052 13.0103 29.3828 13.0106H28.7695C29.6219 20.2064 31.9617 43.7686 32.2949 48.5995C32.5575 52.4061 33.5371 53.5887 35.6992 55.6356C41.5356 61.1613 41.8663 71.491 41.8662 76.3026V146.557C41.8661 148.97 39.9099 150.926 37.4971 150.927H0.58885V76.3026C0.588784 71.491 0.919522 61.1614 6.75584 55.6356C8.91794 53.5887 9.89661 52.4061 10.1592 48.5995C10.4923 43.7687 12.833 20.2064 13.6855 13.0106H13.0742C12.3515 13.0106 11.8286 12.321 12.0224 11.6249L14.2978 3.4608C13.426 3.4302 12.7286 2.71604 12.7285 1.83678C12.7287 0.938308 13.457 0.210044 14.3555 0.209826H28.1006Z" fill="#C6AF75"/>
</g>
</g>
</svg>
